<?xml version="1.0" encoding="UTF-8"?>
<svg xmlns="http://www.w3.org/2000/svg" xmlns:xlink="http://www.w3.org/1999/xlink" width="45px" height="45px" viewBox="0 0 45 45" version="1.1">
<g id="surface1">
<path style=" stroke:none;fill-rule:nonzero;fill:rgb(0%,0%,0%);fill-opacity:1;" d="M 5.625 5.625 L 11.25 5.625 L 11.25 11.25 L 5.625 11.25 Z M 5.625 5.625 "/>
<path style=" stroke:none;fill-rule:nonzero;fill:rgb(0%,0%,0%);fill-opacity:1;" d="M 16.875 0 L 16.875 16.875 L 0 16.875 L 0 0 Z M 14.0625 2.8125 L 2.8125 2.8125 L 2.8125 14.0625 L 14.0625 14.0625 Z M 11.25 33.75 L 5.625 33.75 L 5.625 39.375 L 11.25 39.375 Z M 11.25 33.75 "/>
<path style=" stroke:none;fill-rule:nonzero;fill:rgb(0%,0%,0%);fill-opacity:1;" d="M 16.875 28.125 L 16.875 45 L 0 45 L 0 28.125 Z M 2.8125 30.9375 L 2.8125 42.1875 L 14.0625 42.1875 L 14.0625 30.9375 Z M 33.75 5.625 L 39.375 5.625 L 39.375 11.25 L 33.75 11.25 Z M 33.75 5.625 "/>
<path style=" stroke:none;fill-rule:nonzero;fill:rgb(0%,0%,0%);fill-opacity:1;" d="M 28.125 0 L 28.125 16.875 L 45 16.875 L 45 0 Z M 42.1875 2.8125 L 42.1875 14.0625 L 30.9375 14.0625 L 30.9375 2.8125 Z M 22.5 2.8125 L 22.5 0 L 25.3125 0 L 25.3125 5.625 L 22.5 5.625 L 22.5 11.25 L 19.6875 11.25 L 19.6875 2.8125 Z M 22.5 16.875 L 22.5 11.25 L 25.3125 11.25 L 25.3125 16.875 Z M 16.875 22.5 L 16.875 19.6875 L 19.6875 19.6875 L 19.6875 16.875 L 22.5 16.875 L 22.5 22.5 L 25.3125 22.5 L 25.3125 19.6875 L 39.375 19.6875 L 39.375 22.5 L 28.125 22.5 L 28.125 25.3125 L 19.6875 25.3125 L 19.6875 22.5 Z M 16.875 22.5 L 16.875 25.3125 L 5.625 25.3125 L 5.625 22.5 L 2.8125 22.5 L 2.8125 25.3125 L 0 25.3125 L 0 19.6875 L 8.4375 19.6875 L 8.4375 22.5 Z M 45 25.3125 L 42.1875 25.3125 L 42.1875 19.6875 L 45 19.6875 Z M 42.1875 25.3125 L 39.375 25.3125 L 39.375 30.9375 L 45 30.9375 L 45 28.125 L 42.1875 28.125 Z M 30.9375 25.3125 L 36.5625 25.3125 L 36.5625 28.125 L 33.75 28.125 L 33.75 30.9375 L 30.9375 30.9375 Z M 36.5625 33.75 L 36.5625 30.9375 L 33.75 30.9375 L 33.75 33.75 L 30.9375 33.75 L 30.9375 36.5625 L 25.3125 36.5625 L 25.3125 39.375 L 33.75 39.375 L 33.75 33.75 Z M 36.5625 33.75 L 45 33.75 L 45 36.5625 L 39.375 36.5625 L 39.375 39.375 L 36.5625 39.375 Z M 25.3125 30.9375 L 25.3125 33.75 L 28.125 33.75 L 28.125 28.125 L 19.6875 28.125 L 19.6875 30.9375 Z M 25.3125 30.9375 "/>
<path style=" stroke:none;fill-rule:nonzero;fill:rgb(0%,0%,0%);fill-opacity:1;" d="M 19.6875 33.75 L 22.5 33.75 L 22.5 42.1875 L 33.75 42.1875 L 33.75 45 L 19.6875 45 Z M 45 39.375 L 45 45 L 36.5625 45 L 36.5625 42.1875 L 42.1875 42.1875 L 42.1875 39.375 Z M 45 39.375 "/>
</g>
</svg>
